<svg width="357" height="360" viewBox="0 0 357 360" fill="none" xmlns="http://www.w3.org/2000/svg">
<path d="M256 195C256 227.033 230.033 253 198 253C165.967 253 140 227.033 140 195C140 162.967 165.967 137 198 137C230.033 137 256 162.967 256 195Z" fill="#EA526F"/>
<path d="M73 323.5C73 343.658 56.6584 360 36.5 360C16.3416 360 0 343.658 0 323.5C0 303.342 16.3416 287 36.5 287C56.6584 287 73 303.342 73 323.5Z" fill="#23B5D3"/>
<path d="M357 181.5C357 201.658 340.658 218 320.5 218C300.342 218 284 201.658 284 181.5C284 161.342 300.342 145 320.5 145C340.658 145 357 161.342 357 181.5Z" fill="#23B5D3"/>
<path d="M179 99.5C179 127.39 156.39 150 128.5 150C100.61 150 78 127.39 78 99.5C78 71.6096 100.61 49 128.5 49C156.39 49 179 71.6096 179 99.5Z" fill="#23B5D3"/>
<circle cx="49.5" cy="223.5" r="28.5" fill="#EA526F"/>
<circle cx="197.5" cy="295.5" r="28.5" fill="#EA526F"/>
<circle cx="292" cy="262" r="36" fill="#279AF1"/>
<circle cx="102" cy="276" r="24" fill="#279AF1"/>
<circle cx="292.5" cy="64.5" r="64.5" fill="#279AF1"/>
</svg>
