<svg width="65" height="43" viewBox="0 0 65 43" fill="none" xmlns="http://www.w3.org/2000/svg">
<path d="M64.335 20.1004L49.3037 6.85438C48.3799 6.03939 46.8378 6.00222 45.8579 6.77128C44.8796 7.5397 44.8342 8.82301 45.7588 9.63737L59.2114 21.4912L45.7588 33.3464C44.8342 34.1607 44.8796 35.4434 45.8579 36.2125C46.3292 36.5822 46.9312 36.7653 47.5309 36.7653C48.1785 36.7653 48.8252 36.5517 49.3038 36.1306L64.3352 22.884C65.2214 22.1022 65.2214 20.8816 64.335 20.1004Z" fill="#070600"/>
<path d="M19.2418 33.3457L5.79004 21.4912L19.2418 9.63672C20.1657 8.82236 20.121 7.53894 19.1419 6.77062C18.1636 6.0022 16.6198 6.03937 15.6961 6.85373L0.664793 20.0997C-0.221598 20.8809 -0.221598 22.1022 0.664793 22.8835L15.6969 36.1301C16.1763 36.5525 16.8222 36.7654 17.4698 36.7654C18.0694 36.7654 18.6715 36.5815 19.1419 36.2118C20.1219 35.4434 20.1657 34.1601 19.2418 33.3457Z" fill="#070600"/>
<path d="M36.4436 0.0231656C35.1135 -0.144416 33.8687 0.615138 33.6656 1.72147L26.5156 40.6484C26.3124 41.7554 27.2265 42.7901 28.5574 42.9591C28.6825 42.9746 28.8059 42.9821 28.9287 42.9821C30.1125 42.9821 31.1509 42.2637 31.3354 41.2608L38.4854 2.33382C38.6885 1.22675 37.7744 0.192119 36.4436 0.0231656Z" fill="#070600"/>
</svg>
