<svg width="104" height="104" viewBox="0 0 104 104" fill="none" xmlns="http://www.w3.org/2000/svg">
<circle cx="52" cy="52" r="51" stroke="#070600" stroke-width="2"/>
<path d="M84.335 51.1004L69.3037 37.8544C68.3799 37.0394 66.8378 37.0022 65.8579 37.7713C64.8796 38.5397 64.8342 39.823 65.7588 40.6374L79.2114 52.4912L65.7588 64.3464C64.8342 65.1607 64.8796 66.4434 65.8579 67.2125C66.3292 67.5822 66.9312 67.7653 67.5309 67.7653C68.1785 67.7653 68.8252 67.5517 69.3038 67.1306L84.3352 53.884C85.2214 53.1022 85.2214 51.8816 84.335 51.1004Z" fill="#070600"/>
<path d="M39.2418 64.3457L25.79 52.4912L39.2418 40.6367C40.1657 39.8224 40.121 38.5389 39.1419 37.7706C38.1636 37.0022 36.6198 37.0394 35.6961 37.8537L20.6648 51.0997C19.7784 51.8809 19.7784 53.1022 20.6648 53.8835L35.6969 67.1301C36.1763 67.5525 36.8222 67.7654 37.4698 67.7654C38.0694 67.7654 38.6715 67.5815 39.1419 67.2118C40.1219 66.4434 40.1657 65.1601 39.2418 64.3457Z" fill="#070600"/>
<path d="M56.4436 31.0232C55.1135 30.8556 53.8687 31.6151 53.6656 32.7215L46.5156 71.6484C46.3124 72.7554 47.2265 73.7901 48.5574 73.9591C48.6825 73.9746 48.8059 73.9821 48.9287 73.9821C50.1125 73.9821 51.1509 73.2637 51.3354 72.2608L58.4854 33.3338C58.6885 32.2268 57.7744 31.1921 56.4436 31.0232Z" fill="#070600"/>
</svg>
