<svg width="201" height="207" viewBox="0 0 201 207" fill="none" xmlns="http://www.w3.org/2000/svg">
<path d="M0 100.5C0 45 45 0 100.5 0C156 0 201 45 201 100.5C201 156 156 201 100.5 201C45 201.1 0 156.1 0 100.5Z" fill="#23B5D3"/>
<path d="M48.0998 91.3625C47.9998 91.2625 47.9998 91.2625 47.8998 91.1625C47.6998 93.7625 48.4998 96.4625 50.0998 98.4625C50.2998 96.2625 50.8998 93.5625 48.0998 91.3625Z" fill="#F78C74"/>
<path d="M99.2998 135.863C99.3998 135.863 99.4998 135.863 99.5998 135.963C100.3 135.963 101 135.863 101.5 135.863C102.2 135.863 103 135.763 103.7 135.763C103.9 135.763 104.1 135.663 104.3 135.663C115.5 133.663 125.5 126.863 132.1 117.863C136.7 111.063 138.8 103.063 141.2 95.3625C141.8 93.7625 142.1 91.7625 143.3 90.4625C144.5 90.2625 143.8 92.3625 143.8 93.0625C143 96.2625 142.3 99.4625 141.3 102.663C142.3 101.663 143.4 100.763 144.8 100.263C145.5 99.1625 145.5 97.6625 145.7 96.2625C146 94.4625 146.7 92.7625 147.8 91.1625C148.5 90.3625 149.7 87.2625 151.1 88.1625C151.3 88.3625 151.4 88.7625 151.2 89.0625C151.1 89.1625 151 89.2625 151 89.3625C151.7 92.6625 150 95.5625 147.9 97.9625C147.9 97.9625 147.9 97.9625 147.9 98.0625C147.6 99.8625 146.7 101.563 145 102.263C144.8 102.363 144.6 102.363 144.5 102.463C143.4 103.263 142.3 103.963 141.2 104.763C141.1 104.863 141 104.863 140.9 104.863C140.5 106.063 140.1 107.363 139.6 108.563C145.2 109.063 149.2 105.863 151.6 100.763C156 93.0625 157 74.8625 145 88.1625C143.7 89.6625 142.7 88.6625 143.6 87.0625C143.6 86.9625 143.7 86.9625 143.7 86.8625C143.7 86.7625 143.6 86.7625 143.6 86.6625C141.2 79.5625 140.1 72.0625 141 64.5625C139.8 61.6625 138.2 58.4625 138.5 55.2625C137.9 55.4625 137.4 55.5625 137 55.7625C134.1 56.8625 131.1 57.3625 128.1 57.3625C126.1 57.1625 119.8 57.5625 120.1 54.5625C120.6 53.4625 122 53.1625 122.9 52.4625C125.4 50.9625 127.9 49.2625 130 47.2625C126.8 48.7625 123.4 49.9625 119.9 50.4625C118.6 50.5625 117 51.2625 115.7 50.5625C115.2 50.1625 115.2 49.3625 115.6 48.9625C117 47.8625 118.6 47.0625 119.9 45.8625C120.7 45.2625 121.5 44.6625 122.3 43.9625C119.5 45.0625 116.5 45.5625 113.6 45.8625C111.5 46.9625 109.8 48.8625 107.5 49.6625C103.5 51.3625 99.0998 51.5625 94.7998 51.4625C93.7998 51.4625 92.6998 50.8625 92.7998 49.7625C92.9998 48.1625 94.6998 47.3625 95.6998 46.2625C96.3998 45.6625 96.9998 45.0625 97.6998 44.3625C94.8998 45.1625 91.8998 45.5625 89.0998 45.9625C85.1998 50.1625 81.2998 54.5625 75.9998 57.0625C72.7998 58.6625 69.3998 59.4625 66.0998 60.4625C64.9998 60.8625 63.4998 60.3625 63.6998 58.9625C63.9998 57.6625 64.6998 56.5625 65.0998 55.2625C62.8998 57.6625 60.2998 59.7625 57.6998 61.6625C57.4998 61.7625 57.2998 61.9625 57.0998 62.1625C57.0998 62.2625 57.0998 62.4625 57.1998 62.5625C57.6998 66.0625 57.8998 69.5625 57.5998 73.1625C57.3998 77.2625 56.4998 81.2625 55.7998 85.2625C55.4998 86.1625 55.7998 87.9625 54.8998 88.5625C55.1998 89.3625 54.9998 90.0625 54.2998 90.2625C53.3998 90.3625 52.9998 89.3625 52.5998 88.7625C45.3998 78.2625 41.7998 85.8625 44.5998 94.7625C46.3998 101.663 51.0998 111.163 59.4998 109.563C58.8998 108.163 58.3998 106.663 57.8998 105.263C56.5998 105.063 55.5998 104.263 54.4998 103.663C54.4998 103.663 54.3998 103.663 54.3998 103.563C53.9998 103.563 53.5998 103.563 53.1998 103.463C50.5998 102.663 50.1998 101.163 50.1998 99.5625C48.2998 97.0625 47.2998 93.9625 47.5998 90.8625C47.4998 90.7625 47.3998 90.6625 47.2998 90.5625C46.6998 89.9625 47.5998 88.8625 48.2998 89.3625C51.0998 91.2625 53.9998 94.8625 51.7998 98.1625C50.8998 100.263 52.9998 101.763 54.8998 101.863C54.8998 101.863 54.8998 101.863 54.9998 101.863C55.6998 101.863 56.4998 102.363 56.9998 102.763C55.7998 99.2625 54.2998 95.6625 54.0998 91.9625C54.1998 91.4625 54.6998 90.9625 55.1998 91.2625C56.5998 92.2625 56.5998 94.5625 57.2998 96.0625C60.5998 105.963 63.5998 117.063 71.6998 124.263C76.2998 128.163 81.7998 131.363 87.3998 133.463C91.1998 134.863 95.1998 135.463 99.2998 135.863ZM115.7 57.7625C117.8 56.8625 120.1 58.1625 121.8 59.3625C122.9 59.9625 128.1 64.8625 125.8 65.8625C125.5 66.1625 125.2 66.0625 124.8 65.9625C122.6 65.2625 120.2 65.1625 118 64.3625C116.6 63.8625 115.1 63.3625 114.2 62.1625C113.3 60.6625 114.1 58.5625 115.7 57.7625ZM114.2 77.2625C116 75.1625 119.4 76.3625 120.3 78.7625C121.3 80.9625 120.7 84.9625 118.2 85.9625C116.7 86.5625 115.3 85.4625 114.5 84.2625C114 83.3625 114.2 82.1625 114 81.1625C114 79.8625 113.4 78.3625 114.2 77.2625ZM92.0998 97.3625C92.6998 97.1625 93.2998 97.4625 93.8998 97.5625C96.1998 98.0625 98.6998 98.1625 101 97.8625C102.7 97.6625 104.1 96.8625 105.7 96.6625C106.2 96.7625 106.5 97.4625 106.2 97.8625C106.1 97.9625 106 98.0625 105.9 98.1625C104.7 100.863 102.1 102.863 99.0998 102.863C96.1998 102.963 93.7998 100.663 92.1998 98.4625C91.7998 98.3625 91.5998 97.6625 92.0998 97.3625ZM92.3998 112.263C95.6998 112.763 98.9998 112.563 102.3 112.263C105.4 111.663 108.3 110.863 111 109.463C111.9 109.063 112.8 108.563 113.6 107.963C112.7 107.363 112.1 106.663 113 106.063C114.6 105.563 116 107.163 117 108.263C117.2 108.463 117.4 108.663 117.5 108.863C117.7 109.363 117.2 109.763 116.7 109.663C116.5 109.463 116.2 109.263 115.8 109.063C115.7 109.163 115.6 109.363 115.5 109.463C114.2 110.163 112.5 110.863 111.2 111.463C106.3 113.363 100.9 114.463 95.5998 114.163C94.0998 114.063 92.4998 114.063 91.0998 113.563C89.7998 112.463 91.1998 111.363 92.3998 112.263ZM72.8998 65.8625C70.5998 64.9625 75.7998 60.0625 76.8998 59.3625C78.5998 58.1625 80.8998 56.8625 82.9998 57.7625C84.4998 58.5625 85.2998 60.6625 84.3998 62.0625C83.4998 63.2625 81.9998 63.7625 80.5998 64.2625C78.3998 65.0625 75.9998 65.1625 73.7998 65.8625C73.4998 66.0625 73.1998 66.0625 72.8998 65.8625ZM84.4998 81.1625C84.2998 82.1625 84.5998 83.3625 83.9998 84.2625C83.1998 85.4625 81.7998 86.4625 80.2998 85.9625C77.7998 85.0625 77.1998 81.0625 78.1998 78.7625C79.0998 76.3625 82.4998 75.1625 84.2998 77.2625C85.1998 78.3625 84.6998 79.8625 84.4998 81.1625Z" fill="#FFC3A1"/>
<path d="M150.3 89.9625C149.4 90.9625 148.5 91.9625 147.9 93.1625C147.5 93.9625 147.3 94.6625 147.3 95.4625C147.3 95.9625 147.5 96.3625 147.6 96.8625C149.1 94.7625 150.6 92.5625 150.3 89.9625Z" fill="#F78C74"/>
<path d="M80.7998 157.863C82.4998 158.963 83.8998 160.563 85.8998 161.263C96.2998 165.963 109 164.063 118.1 157.363C117.8 154.263 117.5 151.163 117.2 147.963C117.1 146.563 117 145.163 117 143.863C117 143.663 117 143.363 117.1 143.163C116.1 142.463 116.8 140.563 116.8 139.463C117 138.263 117.2 137.163 117.5 135.963C111.3 141.863 103.7 146.663 94.8998 146.063C90.7998 145.863 87.1998 143.563 84.2998 140.663C83.1998 139.763 82.0998 138.763 81.1998 137.663C81.2998 138.163 81.2998 138.563 81.3998 139.063C81.3998 139.963 81.8998 142.263 81.1998 143.063C81.3998 146.763 80.9998 150.463 80.8998 154.063C80.8998 155.463 80.8998 156.663 80.7998 157.863Z" fill="#FFC3A1"/>
<path d="M98.9999 102.063C101.4 102.163 103.4 100.463 104.7 98.6625C101.4 99.7625 97.7999 100.163 94.3999 99.3625C95.4999 100.763 97.0999 102.063 98.9999 102.063Z" fill="#F78C74"/>
<path d="M82.0997 59.4625C79.0997 58.8625 75.8997 62.1625 74.1997 64.2625C75.7997 63.7625 85.8997 62.1625 82.0997 59.4625Z" fill="#775F5F"/>
<path d="M124.4 64.2625C122.7 62.0625 119.5 58.8625 116.5 59.4625C112.8 62.1625 122.8 63.7625 124.4 64.2625Z" fill="#775F5F"/>
<path d="M154.3 62.4625C153.7 65.1625 153.1 67.9625 152.5 70.6625C151.8 73.7625 151.1 76.7625 150.2 79.7625C150.1 80.2625 149.8 80.8625 149.8 81.3625C149.5 81.4625 149.1 81.5625 148.7 81.6625C147.2 82.3625 145.8 83.4625 144.7 84.7625C144.1 82.4625 143.4 80.1625 142.9 77.8625C141.9 73.2625 141.8 68.3625 142.6 63.7625C141.6 60.6625 139.7 57.7625 140 54.4625C140 53.9625 140 53.2625 139.6 53.0625C138.7 52.2625 136.7 53.6625 135.5 53.8625C131.2 55.2625 126.5 55.6625 122.1 54.6625C126.1 52.6625 130.2 50.3625 132.9 46.6625C133.5 45.7625 132.7 44.3625 131.6 44.9625C130.4 46.3625 128.5 46.9625 126.8 47.6625C124.1 48.5625 121.2 49.1625 118.3 49.1625C120.3 47.8625 122.2 46.5625 123.9 44.8625C124.3 44.4625 126.3 42.2625 127.1 40.8625C128.3 39.8625 129.2 38.5625 128 38.0625C127.8 38.0625 127.6 38.1625 127.4 38.2625C126 39.2625 124.8 40.3625 123.2 41.1625C120.2 42.6625 116.7 42.9625 113.5 43.8625C108.5 47.7625 102 49.2625 95.7 49.1625C97.6 47.4625 99.5 45.6625 101.2 43.6625C101.3 43.5625 101.3 43.4625 101.3 43.3625C101.5 43.1625 101.6 43.0625 101.7 42.8625C102.8 42.2625 103.8 41.6625 104.7 40.8625C105.4 40.2625 106 39.6625 106.4 38.8625C106.5 38.7625 106.5 38.5625 106.4 38.4625C106.3 38.3625 106.1 38.3625 106 38.4625C104.2 39.2625 102.6 40.3625 100.8 41.1625C97.2 42.6625 93.3 43.1625 89.5 43.9625C88.7 43.9625 88.1 44.4625 87.7 45.1625C82.5 52.0625 74 56.0625 65.6 58.3625C66.5 55.7625 67.7 53.2625 68.6 50.6625C68.8 50.1625 69.2 49.4625 68.8 48.9625C68.3 48.2625 67.4 48.7625 67 49.3625C66.1 50.6625 65.1 52.0625 64 53.2625C62.1 55.3625 59.8 57.6625 57.4 59.4625C57 59.8625 56.1 60.3625 55.5 60.8625C55.1 61.0625 54.7 61.6625 54.8 62.1625C55.8 68.6625 55.6 75.2625 54.4 81.8625C54.2 83.3625 53.9 84.8625 53.6 86.3625C52.5 84.8625 51 83.4625 49.8 82.4625C49.4 82.1625 49.1 81.9625 48.8 81.7625C48.6 81.2625 48.3 80.7625 48.2 80.2625C47.5 77.8625 46.8 75.1625 46.3 72.6625C45.7 70.0625 45.4 67.3625 45.1 64.7625C44.9 62.9625 43.5 62.2625 42 63.4625C42.5 60.4625 42.7 57.4625 43.3 54.4625C45 48.9625 47.5 43.5625 50.3 38.5625C58.1 25.1625 70 12.4625 85.9 9.46252C91.1 8.36252 96.5 8.26252 101.8 8.96252C102 9.06252 102.3 9.16252 102.6 9.06252C103.6 9.16252 104.6 9.56252 105.5 9.16252C106.8 7.76252 104.8 7.06252 102.2 6.66252C101.1 5.66252 99.9 4.66252 98.8 3.46252C110.7 5.46252 123.4 9.56252 131.9 18.5625C134.6 21.7625 137 25.2625 138.7 29.1625C138.9 29.7625 139.3 30.5625 140 30.5625C140.1 30.5625 140.2 30.5625 140.3 30.5625C140.7 30.7625 141.1 30.8625 141.5 31.0625C154.3 35.9625 157.2 50.2625 154.3 62.4625Z" fill="#775F5F"/>
<path d="M118.6 132.863C114.6 135.263 110.3 136.963 106 137.663C104.1 138.163 101.3 138.263 99.6997 138.163C99.4997 138.263 99.2997 138.363 98.9997 138.263C92.5997 137.663 86.0997 135.863 80.1997 132.963C80.2997 133.163 80.2997 133.363 80.3997 133.463C80.5997 133.663 80.6997 133.963 80.7997 134.163C82.7997 136.863 84.0997 140.363 86.8997 142.363C96.5997 149.663 108.4 143.063 116 135.863C116.8 135.163 117.6 134.363 118.3 133.663C118.4 133.363 118.5 133.063 118.6 132.863Z" fill="#F78C74"/>
<path d="M136.5 188.963C137.5 186.963 138.5 184.663 138.1 182.263C135.7 174.763 130.9 168.163 126.4 161.963C124.8 159.863 123.4 157.663 121.8 155.563C121.2 153.463 128.1 160.463 128.3 160.963C130.4 163.663 132.3 166.363 134.2 169.263C134.4 169.063 134.6 168.963 134.7 168.763C136.5 166.763 138.3 164.663 139.5 162.363C141.1 159.863 139 157.163 137.7 155.163C134.8 151.063 131.5 147.263 127.9 143.763C125.4 141.163 122.5 138.963 119.8 136.563C119.5 137.663 119.2 138.763 119 139.863C118.7 140.663 118.8 142.163 118.4 142.963C119.2 144.063 119.3 147.563 119.5 148.363C120.5 157.563 120.9 166.663 121.4 175.863C121.7 182.863 121.8 189.963 121.7 197.063C121.5 197.963 121.8 201.663 121.4 203.863C123.5 203.763 125.7 203.563 127.8 203.363C127.9 203.163 128 202.963 128.2 202.763C129 201.663 129.6 200.563 130.3 199.463C132.5 195.863 134.7 192.463 136.5 188.963Z" fill="#8DB8DB"/>
<path d="M165.5 189.263C164.9 189.763 164.2 190.563 163.6 190.863C155.7 197.063 146.3 200.263 136.5 201.963C134.4 202.363 132.3 202.663 130.1 202.863C130.2 202.663 130.4 202.463 130.5 202.263C132.6 199.163 134.8 195.963 136.9 192.763C138.3 190.463 139.8 187.763 140.3 185.063C140.5 183.763 140.5 182.463 140.2 181.163C139.3 178.563 138.1 176.063 136.8 173.663C136.3 172.763 135.8 171.763 135.2 170.863C136.8 169.263 138.5 167.763 139.9 165.963C142.5 162.663 143.4 159.063 140.7 155.463C140.1 154.463 139.4 153.463 138.7 152.463C142.7 155.763 146.6 159.063 150.1 162.863C150.4 163.163 150.6 163.463 150.9 163.763C154.9 168.363 158.3 173.663 161.3 179.063C162.9 182.263 164.4 185.463 165.4 188.963C165.4 189.063 165.5 189.163 165.5 189.263Z" fill="#8DB8DB"/>
<path d="M118.3 159.963C116.7 161.163 114.5 162.263 113.8 162.563C109.1 164.663 104.1 166.263 98.9999 166.263C92.7999 166.163 86.3999 164.863 81.4999 160.763C81.2999 160.663 80.9999 160.363 80.6999 160.063C80.2999 170.363 79.8999 180.663 79.9999 191.063C79.9999 193.963 79.9999 196.963 80.0999 199.863C80.0999 200.263 80.0999 200.663 80.0999 201.163C80.0999 201.563 80.0999 202.063 80.0999 202.463C80.0999 202.663 80.0999 202.863 80.0999 203.063C90.4999 203.763 100.9 204.163 111.3 204.063C114 203.963 116.7 203.863 119.4 203.763C119.4 203.163 119.4 202.563 119.4 201.963C119.5 198.963 119.6 196.063 119.6 193.063C119.7 184.863 119.5 176.663 119 168.563C118.7 165.663 118.5 162.763 118.3 159.963Z" fill="white"/>
<path d="M69.5001 202.163C69.3001 202.163 69.1001 202.163 68.9001 202.063C66.9001 201.763 64.9001 201.463 62.8001 201.163C56.0001 199.963 49.1001 198.263 42.8001 195.263C38.8001 193.463 35.4001 190.863 32.1001 188.063C32.1001 187.463 32.2001 186.863 32.3001 186.163C33.9001 177.363 40.3001 168.763 47.9001 161.363C52.0001 157.263 56.5001 153.463 60.6001 150.263C59.5001 151.663 58.5001 153.063 57.5001 154.463C52.9001 160.163 58.9001 166.363 63.7001 169.563C63.2001 170.363 62.6001 171.163 62.1001 171.963C60.8001 174.063 59.7001 176.363 59.0001 178.763C58.5001 180.563 58.2001 182.363 58.2001 184.263C59.4001 191.263 64.7001 197.063 69.5001 202.163Z" fill="#8DB8DB"/>
<path d="M79.4001 149.163C79.6001 147.263 79.6001 145.163 80.1001 143.263C79.9001 143.163 79.8001 142.863 79.7001 142.663C79.4001 140.163 79.1001 137.663 78.5001 135.363C77.4001 136.263 76.2001 137.263 75.1001 138.163C69.4001 143.463 63.8001 149.063 59.5001 155.563C55.8001 159.563 60.1001 163.963 63.2001 166.663C63.6001 167.163 64.4001 167.563 64.9001 168.063C66.1001 166.463 67.4001 164.863 68.7001 163.363C70.9001 160.763 73.1001 158.263 75.6001 155.863C75.9001 155.663 76.1001 155.363 76.4001 155.363C76.7001 155.463 76.6001 155.763 76.5001 156.063C74.3001 159.163 72.1001 162.263 69.8001 165.263C55.7001 183.663 58.7001 185.663 71.9001 202.463C73.9001 202.663 75.8001 202.763 77.8001 202.963C77.6001 201.163 77.7001 199.263 77.8001 197.563C77.8001 197.163 77.9001 196.763 77.9001 196.363C77.8001 191.863 77.8001 187.463 77.8001 182.963C78.0001 171.563 78.5001 160.363 79.4001 149.163Z" fill="#8DB8DB"/>
<path d="M164.2 179.663C157.4 165.563 146.3 155.263 134 145.963C133.4 145.563 132.7 144.863 132 144.663C131 143.663 130.1 142.663 129.1 141.763C126.5 139.263 123.8 136.963 120.9 134.963C120.8 134.863 120.6 134.763 120.4 134.563C120.7 133.663 121.1 132.763 121.4 131.963C121.6 131.563 121.8 131.063 122.1 130.663C125.5 128.263 128.6 125.463 131.2 122.663C134.4 119.063 136.7 114.863 138.5 110.363C139.6 110.563 140.8 110.463 141.4 110.563C146.4 110.763 150.4 107.263 152.6 102.963C155.6 98.1625 159.8 81.8625 152 81.3625C152.2 80.8625 152.3 80.2625 152.5 79.7625C153.4 76.6625 154.2 73.5625 154.9 70.4625C156 65.4625 157.4 60.5625 157.6 55.3625C158 44.1625 153.2 32.3625 141.7 28.7625C141.5 28.6625 141.3 28.6625 141 28.6625C140 24.7625 133.3 16.2625 132.1 15.3625C130.6 13.9625 129 12.6625 127.3 11.5625C122.2 8.16253 116.5 5.56253 110.7 3.76253C107.8 2.86253 104.8 2.16253 101.8 1.66253C99.9999 1.46253 97.9999 0.562529 96.2999 1.26253C94.2999 2.66253 98.2999 5.06253 99.4999 6.46253C97.6999 6.36253 96.0999 6.36253 95.4999 6.36253C82.7999 6.26253 70.4999 11.5625 61.3999 20.5625C53.5999 28.5625 46.8999 37.9625 43.1999 48.5625C42.3999 52.3625 41.1999 56.0625 40.4999 59.8625C40.0999 62.1625 38.9999 66.4625 42.8999 65.1625C43.4999 70.6625 44.3999 76.4625 46.8999 81.4625C44.4999 81.1625 42.1999 82.9625 41.7999 85.4625C40.4999 91.3625 42.8999 97.4625 45.0999 102.863C47.0999 107.163 50.6999 111.163 55.4999 112.063C56.3999 112.263 57.1999 112.263 58.0999 111.963C58.0999 111.963 58.0999 111.963 57.9999 111.963C58.6999 111.763 59.3999 111.663 59.9999 111.363C61.1999 114.263 62.5999 117.163 64.3999 119.863C67.6999 124.563 72.0999 128.463 77.0999 131.463C77.4999 132.163 77.7999 132.963 77.9999 133.763C77.8999 133.863 77.7999 133.863 77.6999 133.963C76.4999 134.763 75.2999 135.763 74.1999 136.663C70.8999 139.563 67.6999 142.663 64.6999 145.963H64.5999C52.0999 153.063 37.5999 166.863 31.8999 180.163C31.1999 181.963 30.6999 183.763 30.2999 185.563C30.0999 186.663 29.8999 187.863 30.5999 188.763C30.6999 188.863 30.6999 188.963 30.7999 188.963C30.9999 189.563 31.4999 190.163 31.8999 190.563C48.8999 206.663 82.3999 205.363 104.7 206.463C125.2 206.363 151.8 205.963 167.2 190.763C167.4 190.463 167.5 190.163 167.4 189.763C168.4 187.863 164.7 180.863 164.2 179.663ZM46.1999 72.7625C45.5999 70.1625 45.3999 67.4625 44.9999 64.8625C44.7999 63.0625 43.3999 62.3625 41.8999 63.5625C42.3999 60.5625 42.5999 57.5625 43.1999 54.5625C44.8999 49.0625 47.3999 43.6625 50.1999 38.6625C58.0999 25.1625 69.9999 12.4625 85.8999 9.46253C91.0999 8.36253 96.4999 8.26253 101.8 8.96253C102 9.06253 102.3 9.16253 102.6 9.06253C103.6 9.16253 104.6 9.56253 105.5 9.16253C106.8 7.76253 104.8 7.06253 102.2 6.66253C101.1 5.66253 99.8999 4.66253 98.7999 3.46253C110.7 5.46253 123.4 9.56253 131.9 18.5625C134.6 21.7625 137 25.2625 138.7 29.1625C138.9 29.7625 139.3 30.4625 140 30.5625C140.1 30.5625 140.2 30.5625 140.3 30.5625C140.7 30.7625 141.1 30.8625 141.5 31.0625C154.4 36.0625 157.2 50.2625 154.4 62.5625C153.2 68.3625 152 74.2625 150.3 79.9625C150.2 80.4625 149.9 81.0625 149.9 81.5625C149.6 81.6625 149.2 81.7625 148.8 81.8625C147.3 82.5625 145.9 83.6625 144.8 84.9625C144.2 82.6625 143.5 80.3625 143 77.9625C142 73.3625 141.9 68.4625 142.7 63.8625C141.7 60.7625 139.8 57.8625 140.1 54.5625C140.1 54.0625 140.1 53.3625 139.7 53.1625C138.8 52.3625 136.8 53.7625 135.6 53.9625C131.3 55.3625 126.6 55.7625 122.2 54.7625C126.2 52.7625 130.3 50.4625 133 46.7625C133.6 45.8625 132.8 44.4625 131.7 45.0625C130.5 46.4625 128.6 47.0625 126.9 47.7625C124.2 48.6625 121.3 49.2625 118.4 49.2625C120.4 47.9625 122.3 46.6625 124 44.9625C124.4 44.5625 126.4 42.3625 127.2 40.9625C128.4 39.8625 129.3 38.6625 128.1 38.1625C127.9 38.1625 127.7 38.2625 127.6 38.3625C126.2 39.3625 125 40.4625 123.4 41.1625C120.4 42.6625 116.9 42.9625 113.7 43.8625C108.7 47.7625 102.3 49.2625 95.8999 49.1625C97.7999 47.4625 99.6999 45.5625 101.4 43.6625C101.5 43.5625 101.5 43.4625 101.6 43.3625C101.8 43.1625 101.9 43.0625 102 42.8625C103.1 42.2625 104.1 41.6625 105 40.8625C105.7 40.2625 106.3 39.6625 106.7 38.8625C106.8 38.7625 106.8 38.5625 106.7 38.4625C106.6 38.3625 106.4 38.3625 106.3 38.4625C104.5 39.2625 102.9 40.3625 101.1 41.1625C97.4999 42.6625 93.5999 43.1625 89.7999 43.9625C88.9999 43.9625 88.3999 44.4625 87.9999 45.2625C82.4999 52.0625 73.9999 56.0625 65.5999 58.3625C66.4999 55.7625 67.6999 53.2625 68.5999 50.6625C68.7999 50.1625 69.1999 49.4625 68.6999 48.9625C68.1999 48.2625 67.2999 48.7625 66.8999 49.3625C65.9999 50.6625 64.9999 52.0625 63.8999 53.2625C61.9999 55.3625 59.6999 57.6625 57.2999 59.4625C56.8999 59.8625 55.9999 60.3625 55.3999 60.8625C54.9999 61.0625 54.5999 61.6625 54.6999 62.1625C55.6999 68.6625 55.4999 75.2625 54.2999 81.7625C54.0999 83.2625 53.7999 84.7625 53.4999 86.2625C52.0999 84.3625 49.9999 82.3625 48.6999 81.7625C48.4999 81.2625 48.1999 80.7625 48.0999 80.3625C47.3999 77.8625 46.7999 75.2625 46.1999 72.7625ZM71.4999 124.263C63.2999 117.163 60.3999 106.063 57.0999 96.0625C56.4999 94.5625 56.3999 92.2625 54.9999 91.2625C54.4999 91.0625 53.9999 91.4625 53.8999 91.9625C54.0999 95.6625 55.4999 99.2625 56.7999 102.763C56.1999 102.363 55.3999 101.963 54.7999 101.863C54.7999 101.863 54.7999 101.863 54.6999 101.863C52.8999 101.663 50.6999 100.163 51.5999 98.1625C53.7999 94.7625 50.8999 91.1625 48.0999 89.3625C47.3999 88.8625 46.4999 89.8625 47.0999 90.5625C47.1999 90.6625 47.2999 90.7625 47.3999 90.8625C47.1999 93.9625 48.0999 97.1625 49.9999 99.5625C49.9999 101.263 50.3999 102.663 52.9999 103.463C53.2999 103.563 53.7999 103.563 54.1999 103.563C54.1999 103.563 54.2999 103.563 54.2999 103.663C55.3999 104.263 56.3999 105.063 57.6999 105.263C58.1999 106.663 58.7999 108.163 59.2999 109.563C50.8999 111.163 46.1999 101.663 44.3999 94.7625C41.5999 85.8625 45.1999 78.2625 52.3999 88.7625C52.7999 89.3625 53.2999 90.3625 54.0999 90.2625C54.8999 90.0625 54.9999 89.3625 54.6999 88.5625C55.4999 87.9625 55.2999 86.1625 55.5999 85.2625C56.2999 81.2625 57.1999 77.2625 57.3999 73.1625C57.5999 69.6625 57.4999 66.0625 56.9999 62.5625C56.9999 62.4625 56.9999 62.2625 56.8999 62.1625C57.0999 61.9625 57.2999 61.8625 57.4999 61.6625C60.1999 59.7625 62.6999 57.7625 64.8999 55.2625C64.4999 56.4625 63.7999 57.6625 63.4999 58.9625C63.1999 60.3625 64.7999 60.8625 65.8999 60.4625C69.1999 59.3625 72.6999 58.5625 75.7999 57.0625C81.0999 54.5625 84.9999 50.1625 88.8999 45.9625C91.6999 45.5625 94.6999 45.1625 97.4999 44.3625C96.8999 44.9625 96.1999 45.6625 95.4999 46.2625C94.4999 47.2625 92.7999 48.1625 92.5999 49.7625C92.4999 50.8625 93.5999 51.4625 94.5999 51.4625C98.8999 51.5625 103.3 51.3625 107.3 49.6625C109.6 48.7625 111.2 46.9625 113.4 45.8625C116.3 45.5625 119.3 44.9625 122.1 43.9625C121.4 44.6625 120.6 45.3625 119.7 45.8625C118.3 46.9625 116.8 47.8625 115.4 48.9625C115 49.4625 115 50.1625 115.5 50.5625C116.8 51.2625 118.3 50.5625 119.7 50.4625C123.2 49.9625 126.6 48.7625 129.8 47.2625C127.7 49.2625 125.2 50.9625 122.7 52.4625C121.8 53.1625 120.4 53.4625 119.9 54.5625C119.6 57.5625 125.9 57.1625 127.9 57.3625C130.9 57.3625 134 56.8625 136.8 55.7625C137.2 55.5625 137.7 55.4625 138.3 55.2625C138 58.4625 139.5 61.6625 140.8 64.5625C139.9 72.0625 141.1 79.5625 143.4 86.6625C143.4 86.7625 143.5 86.8625 143.5 86.8625C143.5 86.9625 143.4 86.9625 143.4 87.0625C142.5 88.6625 143.5 89.6625 144.8 88.1625C156.8 74.8625 155.7 93.0625 151.4 100.763C149 105.763 145 109.063 139.4 108.563C139.9 107.363 140.3 106.063 140.7 104.863C140.8 104.863 140.9 104.863 141 104.763C142.1 103.963 143.2 103.263 144.3 102.463C144.5 102.463 144.7 102.363 144.8 102.263C146.5 101.563 147.5 99.8625 147.7 98.0625C147.7 98.0625 147.7 98.0625 147.7 97.9625C149.9 95.5625 151.5 92.6625 150.8 89.3625C150.9 89.2625 151 89.1625 151 89.0625C151.2 88.7625 151.1 88.3625 150.9 88.1625C149.6 87.1625 148.3 90.2625 147.6 91.1625C146.5 92.6625 145.8 94.3625 145.5 96.2625C145.3 97.5625 145.3 99.0625 144.6 100.263C143.3 100.763 142.1 101.563 141.1 102.663C142 99.4625 142.8 96.2625 143.6 93.0625C143.7 92.4625 144.3 90.3625 143.1 90.4625C141.9 91.7625 141.6 93.7625 141 95.3625C138.6 103.063 136.5 111.063 131.9 117.863C125.3 126.863 115.2 133.663 104.1 135.663C103.9 135.663 103.7 135.763 103.5 135.763C102.8 135.863 102 135.863 101.3 135.863C100.8 135.863 100.1 135.863 99.3999 135.963C99.2999 135.963 99.1999 135.863 99.0999 135.863C94.9999 135.463 90.9999 134.863 87.0999 133.463C81.5999 131.363 76.1999 128.163 71.4999 124.263ZM50.0999 98.5625C48.4999 96.4625 47.6999 93.8625 47.8999 91.2625C47.9999 91.3625 47.9999 91.3625 48.0999 91.4625C50.8999 93.5625 50.2999 96.2625 50.0999 98.5625ZM147.3 95.4625C147.3 94.6625 147.5 93.9625 147.9 93.1625C148.5 91.9625 149.4 90.9625 150.3 89.9625C150.6 92.5625 149.1 94.7625 147.6 96.8625C147.5 96.4625 147.3 95.9625 147.3 95.4625ZM81.2999 143.163C81.9999 142.363 81.3999 140.063 81.4999 139.163C81.4999 138.663 81.3999 138.263 81.2999 137.763C82.1999 138.863 83.2999 139.863 84.3999 140.763C87.1999 143.663 90.7999 145.963 94.9999 146.163C103.8 146.863 111.4 141.963 117.6 136.063C117.3 137.263 117.1 138.363 116.9 139.563C116.9 140.563 116.1 142.563 117.2 143.263C117.2 143.463 117.1 143.763 117.1 143.963C117.1 145.363 117.2 146.763 117.3 148.063C117.6 151.263 117.9 154.363 118.2 157.463C109.2 164.263 96.3999 166.163 85.9999 161.363C84.0999 160.663 82.6999 158.963 80.8999 157.963C80.9999 156.763 80.9999 155.463 81.0999 154.263C81.0999 150.563 81.4999 146.863 81.2999 143.163ZM116 135.863C108.4 143.063 96.5999 149.563 86.8999 142.363C83.9999 140.363 82.7999 136.963 80.7999 134.163C80.6999 133.963 80.4999 133.763 80.3999 133.463C80.2999 133.263 80.2999 133.063 80.1999 132.963C86.0999 135.963 92.5999 137.763 98.9999 138.263C99.2999 138.263 99.4999 138.263 99.6999 138.163C101.4 138.263 104.1 138.163 106 137.663C110.3 136.963 114.6 135.263 118.6 132.863C118.5 133.063 118.4 133.363 118.3 133.563C117.6 134.363 116.8 135.063 116 135.863ZM68.8999 202.163C60.0999 200.963 51.0999 199.163 42.8999 195.363C38.8999 193.563 35.4999 190.963 32.0999 188.163C32.0999 187.563 32.1999 186.963 32.2999 186.263C34.6999 172.663 48.9999 159.463 60.5999 150.363C59.4999 151.763 58.4999 153.163 57.4999 154.563C52.8999 160.263 58.8999 166.463 63.6999 169.663C60.5999 174.063 58.1999 178.863 58.1999 184.263C59.2999 191.263 64.6999 196.963 69.4999 202.063C69.2999 202.163 69.0999 202.163 68.8999 202.163ZM77.8999 196.163C77.8999 196.563 77.7999 196.963 77.7999 197.363C77.6999 199.063 77.5999 200.963 77.7999 202.763C75.7999 202.663 73.7999 202.463 71.8999 202.263C58.6999 185.463 55.6999 183.463 69.7999 165.063C72.0999 162.063 74.3999 158.963 76.4999 155.863C76.6999 155.663 76.7999 155.263 76.3999 155.163C75.9999 155.163 75.7999 155.463 75.5999 155.663C73.0999 157.963 70.8999 160.563 68.6999 163.163C67.3999 164.663 66.0999 166.263 64.8999 167.863C64.3999 167.363 63.5999 166.963 63.1999 166.463C60.0999 163.663 55.7999 159.363 59.4999 155.363C63.7999 148.963 69.3999 143.263 75.0999 137.963C76.0999 137.063 77.2999 136.063 78.4999 135.163C79.0999 137.563 79.3999 140.063 79.6999 142.463C79.6999 142.663 79.8999 142.963 80.0999 143.063C79.5999 144.963 79.5999 146.963 79.3999 148.963C78.4999 160.163 77.9999 171.363 77.7999 182.663C77.7999 187.263 77.7999 191.763 77.8999 196.163ZM119.4 193.063C119.4 196.063 119.3 198.963 119.2 201.963C119.2 202.563 119.1 203.163 119.2 203.763C116.5 203.863 113.8 203.963 111.1 204.063C100.7 204.163 90.2999 203.763 79.8999 203.063C79.8999 202.863 79.9999 202.663 79.8999 202.463C79.8999 202.063 79.8999 201.563 79.8999 201.163C79.9999 200.763 79.9999 200.263 79.8999 199.863C79.7999 196.963 79.7999 193.963 79.7999 191.063C79.6999 180.763 80.0999 170.463 80.4999 160.063C80.7999 160.363 81.0999 160.663 81.2999 160.763C86.0999 164.763 92.5999 166.163 98.7999 166.263C104 166.263 109 164.663 113.6 162.563C114.3 162.263 116.5 161.163 118.1 159.963C118.3 162.863 118.5 165.663 118.7 168.663C119.4 176.763 119.5 184.963 119.4 193.063ZM127.8 203.163C125.7 203.363 123.5 203.563 121.4 203.663C121.8 201.463 121.5 197.663 121.7 196.863C121.8 189.763 121.7 182.763 121.4 175.663C120.9 166.463 120.5 157.363 119.5 148.163C119.3 147.363 119.2 143.963 118.4 142.763C118.9 141.963 118.7 140.463 119 139.663C119.2 138.563 119.5 137.463 119.8 136.363C122.5 138.763 125.4 140.963 127.9 143.563C131.4 147.063 134.8 150.863 137.7 154.963C139.1 156.963 141.1 159.663 139.5 162.163C138.3 164.463 136.5 166.563 134.7 168.563C134.6 168.763 134.4 168.863 134.2 169.063C132.4 166.163 130.4 163.463 128.3 160.763C128.1 160.263 121.2 153.263 121.8 155.363C123.3 157.463 124.7 159.663 126.4 161.763C131 168.063 135.7 174.663 138.1 182.063C138.5 184.363 137.6 186.663 136.5 188.763C134.6 192.363 132.4 195.763 130.3 199.063C129.6 200.163 128.9 201.263 128.2 202.363C128 202.763 127.9 202.963 127.8 203.163ZM163.6 190.863C154 198.463 142.2 201.563 130.2 202.963C130.3 202.763 130.5 202.563 130.6 202.363C132.7 199.163 134.9 196.063 137 192.863C139.1 189.463 141.4 185.363 140.3 181.263C139 177.663 137.3 174.263 135.3 170.963C136.9 169.363 138.6 167.863 140 166.063C142.6 162.763 143.5 159.163 140.8 155.563C140.2 154.563 139.5 153.563 138.8 152.563C143.1 156.163 147.3 159.663 151 163.863C155 168.463 158.4 173.763 161.4 179.163C163 182.363 164.5 185.563 165.5 189.063C165.5 189.163 165.6 189.263 165.6 189.263C164.9 189.763 164.3 190.563 163.6 190.863Z" fill="#440829"/>
<path d="M78.2998 78.7625C77.2998 80.9625 77.8998 84.9625 80.3998 85.9625C81.8998 86.5625 83.2998 85.4625 84.0998 84.2625C84.6998 83.3625 84.3998 82.1625 84.5998 81.1625C84.6998 79.9625 85.1998 78.4625 84.4998 77.3625C82.5998 75.1625 79.1998 76.3625 78.2998 78.7625Z" fill="#440829"/>
<path d="M84.4001 62.1625C85.4001 60.6625 84.5001 58.5625 83.0001 57.8625C80.9001 56.9625 78.6001 58.2625 76.9001 59.4625C75.8001 60.0625 70.6001 64.9625 72.9001 65.9625C73.2001 66.2625 73.5001 66.1625 73.9001 66.0625C76.1001 65.3625 78.5001 65.2625 80.7001 64.4625C82.0001 63.8625 83.5001 63.3625 84.4001 62.1625ZM82.1001 59.4625C85.9001 62.1625 75.8001 63.7625 74.2001 64.2625C75.9001 62.1625 79.1001 58.8625 82.1001 59.4625Z" fill="#440829"/>
<path d="M114.6 84.2625C115.4 85.4625 116.8 86.4625 118.3 85.9625C120.8 85.0625 121.4 81.0625 120.4 78.7625C119.5 76.3625 116.1 75.1625 114.3 77.2625C113.5 78.3625 114 79.8625 114.2 81.0625C114.3 82.1625 114 83.3625 114.6 84.2625Z" fill="#440829"/>
<path d="M118 64.3625C120.2 65.1625 122.6 65.2625 124.8 65.9625C125.1 66.0625 125.5 66.1625 125.8 65.8625C128.1 64.9625 122.9 60.0625 121.8 59.3625C120.1 58.1625 117.8 56.8625 115.7 57.7625C114.2 58.5625 113.4 60.6625 114.3 62.0625C115.1 63.3625 116.7 63.8625 118 64.3625ZM116.6 59.4625C119.6 58.8625 122.8 62.1625 124.5 64.2625C122.8 63.7625 112.8 62.1625 116.6 59.4625Z" fill="#440829"/>
<path d="M92.1998 98.5625C93.7998 100.663 96.2998 102.963 99.0998 102.963C102.1 102.963 104.7 100.963 105.9 98.2625C106 98.1625 106.1 98.0625 106.2 97.9625C106.5 97.5625 106.2 96.8625 105.7 96.7625C104.1 96.9625 102.7 97.7625 101 97.9625C98.5998 98.2625 96.1998 98.0625 93.8998 97.6625C93.2998 97.5625 92.6998 97.2625 92.0998 97.4625C91.5998 97.6625 91.7998 98.3625 92.1998 98.5625ZM104.7 98.7625C103.4 100.563 101.3 102.163 98.9998 102.163C97.0998 102.063 95.4998 100.863 94.3998 99.4625C97.7998 100.163 101.4 99.8625 104.7 98.7625Z" fill="#440829"/>
<path d="M95.4998 114.163C100.8 114.363 106.2 113.263 111.1 111.463C112.4 110.863 114.1 110.163 115.4 109.463C115.5 109.363 115.7 109.263 115.7 109.063C116.1 109.263 116.5 109.463 116.6 109.663C117.1 109.863 117.5 109.363 117.4 108.863C117.3 108.563 117.1 108.463 116.9 108.263C116 107.163 114.5 105.563 112.9 106.063C112 106.763 112.6 107.463 113.5 107.963C112.7 108.463 111.8 108.963 110.9 109.463C108.1 110.963 105.2 111.663 102.2 112.263C98.8998 112.563 95.6998 112.763 92.2998 112.263C91.0998 111.363 89.7998 112.563 90.8998 113.563C92.3998 114.063 93.9998 114.063 95.4998 114.163Z" fill="#440829"/>
<path d="M62.2 172.063C60.6 170.363 57.3 166.963 54.6 163.563C53 161.563 50.4 161.263 48 161.463C52.1 157.363 56.6 153.563 60.7 150.363C59.6 151.763 58.6 153.163 57.6 154.563C53 160.263 59 166.463 63.8 169.663C63.2 170.463 62.7 171.263 62.2 172.063Z" fill="#6297CC"/>
<path d="M69.4997 202.163C69.2997 202.163 69.0997 202.163 68.8997 202.063C66.8997 201.763 64.8997 201.463 62.7997 201.163C60.9997 197.363 59.2997 193.263 58.3997 189.563C57.1997 185.063 57.7997 181.463 58.9997 178.763C58.4997 180.563 58.1997 182.363 58.1997 184.263C59.3997 191.263 64.6997 197.063 69.4997 202.163Z" fill="#6297CC"/>
<path d="M140.4 185.163C140.7 187.263 140.7 190.063 139.7 192.563C139 194.263 137.8 197.963 136.6 202.063C134.5 202.463 132.4 202.763 130.2 202.963C130.3 202.763 130.5 202.563 130.6 202.363C132.7 199.263 134.9 196.063 137 192.863C138.4 190.463 139.9 187.863 140.4 185.163Z" fill="#6297CC"/>
<path d="M150.1 162.963C148.1 163.363 145.9 164.063 144.5 165.463C142.9 167.063 139.5 170.763 136.8 173.663C136.3 172.763 135.8 171.763 135.2 170.863C136.8 169.263 138.5 167.763 139.9 165.963C142.5 162.663 143.4 159.063 140.7 155.463C140.1 154.463 139.4 153.463 138.7 152.463C142.7 155.863 146.6 159.163 150.1 162.963Z" fill="#6297CC"/>
<path d="M152.7 63.7625C152.7 66.0625 152.6 68.4625 152.6 70.7625C151.9 73.8625 151.2 76.8625 150.3 79.8625C150.2 80.3625 149.9 80.9625 149.9 81.4625C149.6 81.5625 149.2 81.6625 148.8 81.7625C147.3 82.4625 145.9 83.5625 144.8 84.8625C144.2 82.5625 143.5 80.2625 143 77.9625C142 73.3625 141.9 68.4625 142.7 63.8625C141.7 60.7625 139.8 57.8625 140.1 54.5625C140.1 54.0625 140.1 53.3625 139.7 53.1625C138.8 52.3625 136.8 53.7625 135.6 53.9625C131.3 55.3625 126.6 55.7625 122.2 54.7625C126.2 52.7625 130.3 50.4625 133 46.7625C133.6 45.8625 132.8 44.4625 131.7 45.0625C130.5 46.4625 128.6 47.0625 126.9 47.7625C124.2 48.6625 121.3 49.2625 118.4 49.2625C120.4 47.9625 122.3 46.6625 124 44.9625C124.4 44.5625 126.4 42.3625 127.2 40.9625C128.4 39.9625 129.3 38.6625 128.1 38.1625C127.9 38.1625 127.7 38.2625 127.5 38.3625C126.1 39.3625 124.9 40.4625 123.3 41.2625C120.3 42.7625 116.8 43.0625 113.6 43.9625C108.6 47.8625 102.1 49.3625 95.7998 49.2625C97.6998 47.5625 99.5998 45.7625 101.3 43.7625C101.4 43.6625 101.4 43.5625 101.4 43.4625C101.6 43.2625 101.7 43.1625 101.8 42.9625C102.9 42.3625 103.9 41.7625 104.8 40.9625C105.5 40.3625 106.1 39.7625 106.5 38.9625C106.6 38.8625 106.6 38.6625 106.5 38.5625C106.4 38.4625 106.2 38.4625 106.1 38.5625C104.3 39.3625 102.7 40.4625 100.9 41.2625C97.2998 42.7625 93.3998 43.2625 89.5998 44.0625C88.7998 44.0625 88.1998 44.5625 87.7998 45.2625C82.4998 52.0625 73.9998 56.0625 65.5998 58.3625C66.4998 55.7625 67.6998 53.2625 68.5998 50.6625C68.7998 50.1625 69.1998 49.4625 68.7998 48.9625C68.2998 48.2625 67.3998 48.7625 66.9998 49.3625C66.0998 50.6625 65.0998 52.0625 63.9998 53.2625C62.0998 55.3625 59.7998 57.6625 57.3998 59.4625C56.9998 59.8625 56.0998 60.3625 55.4998 60.8625C55.0998 61.0625 54.6998 61.6625 54.7998 62.1625C55.7998 68.6625 55.5998 75.2625 54.3998 81.8625C54.1998 83.3625 53.8998 84.8625 53.5998 86.3625C52.4998 84.8625 50.9998 83.4625 49.7998 82.4625C49.0998 78.6625 48.5998 74.8625 48.5998 70.9625C48.5998 64.7625 50.0998 58.4625 53.8998 53.5625C51.3998 55.4625 49.2998 57.6625 47.4998 60.1625C47.1998 56.0625 48.7998 52.0625 50.5998 48.3625C57.1998 34.6625 67.2998 21.3625 81.8998 16.9625C91.5998 14.0625 102.1 15.3625 112.1 16.7625C110.5 14.7625 108.8 12.7625 107.2 10.7625C112.9 12.5625 118.7 14.4625 123.8 17.7625C128.8 20.9625 133.2 25.8625 134.5 31.7625C133.9 31.7625 134.5 32.0625 133.9 32.0625C139.4 34.8625 144.2 39.0625 147.7 44.1625C149.4 46.5625 150.8 49.2625 151.6 52.1625C152.6 55.8625 152.7 59.8625 152.7 63.7625Z" fill="#564D4E"/>
</svg>
